<svg width="118" height="70" viewBox="0 0 118 70" fill="none" xmlns="http://www.w3.org/2000/svg">
<path d="M3 38C4.65685 38 6 36.6569 6 35C6 33.3431 4.65685 32 3 32C1.34315 32 0 33.3431 0 35C0 36.6569 1.34315 38 3 38Z" fill="#0F4FFD"/>
<path d="M21 25H19C17.8954 25 17 25.8954 17 27V43C17 44.1046 17.8954 45 19 45H21C22.1046 45 23 44.1046 23 43V27C23 25.8954 22.1046 25 21 25Z" fill="#0F4FFD"/>
<path d="M35 17.5H33C31.8954 17.5 31 18.3954 31 19.5V50.5C31 51.6046 31.8954 52.5 33 52.5H35C36.1046 52.5 37 51.6046 37 50.5V19.5C37 18.3954 36.1046 17.5 35 17.5Z" fill="#0F4FFD"/>
<path d="M49 10H47C45.8954 10 45 10.8954 45 12V58C45 59.1046 45.8954 60 47 60H49C50.1046 60 51 59.1046 51 58V12C51 10.8954 50.1046 10 49 10Z" fill="#0F4FFD"/>
<path d="M63 0H61C59.8954 0 59 0.89543 59 2V68C59 69.1046 59.8954 70 61 70H63C64.1046 70 65 69.1046 65 68V2C65 0.89543 64.1046 0 63 0Z" fill="#0F4FFD"/>
<path d="M77 10H75C73.8954 10 73 10.8954 73 12V58C73 59.1046 73.8954 60 75 60H77C78.1046 60 79 59.1046 79 58V12C79 10.8954 78.1046 10 77 10Z" fill="#0F4FFD"/>
<path d="M91 17.5H89C87.8954 17.5 87 18.3954 87 19.5V50.5C87 51.6046 87.8954 52.5 89 52.5H91C92.1046 52.5 93 51.6046 93 50.5V19.5C93 18.3954 92.1046 17.5 91 17.5Z" fill="#0F4FFD"/>
<path d="M105 25H103C101.895 25 101 25.8954 101 27V43C101 44.1046 101.895 45 103 45H105C106.105 45 107 44.1046 107 43V27C107 25.8954 106.105 25 105 25Z" fill="#0F4FFD"/>
<path d="M115 38C116.657 38 118 36.6569 118 35C118 33.3431 116.657 32 115 32C113.343 32 112 33.3431 112 35C112 36.6569 113.343 38 115 38Z" fill="#0F4FFD"/>
</svg>
